<?xml version="1.0" encoding="iso-8859-1"?>
<!-- Generator: Adobe Illustrator 19.0.0, SVG Export Plug-In . SVG Version: 6.00 Build 0)  -->
<svg version="1.1" id="Layer_1" xmlns="http://www.w3.org/2000/svg" xmlns:xlink="http://www.w3.org/1999/xlink" x="0px" y="0px"
	 viewBox="0 0 512 512" style="enable-background:new 0 0 512 512;" xml:space="preserve">
<path style="fill:#BDDEFF;" d="M133.494,147.222h106.118c20.334,0,39.343,10.094,50.733,26.939l36.849,54.702H119.783
	L133.494,147.222z"/>
<polygon style="fill:#D7EBFF;" points="133.494,147.222 259.298,147.222 259.3,228.862 119.783,228.862 "/>
<path style="fill:#C9D2D9;" d="M30.509,316.345H16.493C7.384,316.345,0,308.96,0,299.852c0-9.108,7.384-16.493,16.493-16.493h14.017
	c9.108,0,16.493,7.384,16.493,16.493C47.002,308.96,39.618,316.345,30.509,316.345z"/>
<path style="fill:#2E373A;" d="M126.073,158.522l-24.065,59.741c-3.403,8.45,0.687,18.057,9.136,21.461
	c2.02,0.814,4.106,1.198,6.157,1.198c6.53,0,12.714-3.905,15.303-10.334l27.732-68.844c0.328-0.814,0.565-1.638,0.756-2.466h-30.075
	C129.295,159.277,127.635,159.011,126.073,158.522z"/>
<path style="fill:#128CB3;" d="M337.029,212.987l-35.498-52.502c-14.477-21.411-38.55-34.194-64.395-34.194H131.018
	c-9.108,0-16.493,7.384-16.493,16.493c0,7.385,4.855,13.636,11.548,15.736c1.561,0.49,3.222,0.756,4.945,0.756h30.075h76.043
	c14.879,0,28.736,7.358,37.069,19.683l35.498,52.502c3.187,4.715,8.385,7.257,13.678,7.257c3.179,0,6.391-0.917,9.223-2.831
	C340.151,230.786,342.131,220.533,337.029,212.987z"/>
<path style="fill:#34B2D9;" d="M259.299,129.509c0,0-2.147-0.612-3.233-0.885c-6.118-1.533-12.468-2.332-18.929-2.332H131.018
	c-9.108,0-16.493,7.384-16.493,16.493c0,7.385,4.855,13.636,11.548,15.736c1.561,0.49,3.222,0.756,4.945,0.756h30.075h76.043
	c6.548,0,12.898,1.425,18.666,4.072c1.192,0.546,3.496,1.794,3.496,1.794L259.299,129.509z"/>
<path style="fill:#BA2B11;" d="M504.188,246.029c-40.261-24.923-86.569-38.097-133.92-38.097H117.307
	c-49.895,0-90.488,40.593-90.488,90.488v32.888c0,9.108,7.384,16.493,16.493,16.493h418.404c27.726,0,50.284-22.558,50.284-50.284
	v-37.464C512,254.34,509.045,249.036,504.188,246.029z"/>
<path style="fill:#E64122;" d="M259.298,207.932H117.307c-49.895,0-90.488,40.593-90.488,90.488v32.888
	c0,9.108,7.384,16.493,16.493,16.493h215.986V207.932z"/>
<path style="fill:#212A2D;" d="M122.788,385.708c-29.997,0-54.402-24.405-54.402-54.402c0-29.997,24.405-54.402,54.402-54.402
	s54.402,24.405,54.402,54.402C177.19,361.304,152.785,385.708,122.788,385.708z"/>
<path style="fill:#2E373A;" d="M122.788,385.708c-29.997,0-54.402-24.405-54.402-54.402c0-29.997,24.405-54.402,54.402-54.402
	V385.708z"/>
<path style="fill:#212A2D;" d="M280.128,284.615h-21.439c-9.108,0-16.493-7.384-16.493-16.493c0-9.108,7.384-16.493,16.493-16.493
	h21.439c9.108,0,16.493,7.384,16.493,16.493C296.621,277.23,289.237,284.615,280.128,284.615z"/>
<path style="fill:#2E373A;" d="M269.409,284.615h-10.72c-9.108,0-16.493-7.384-16.493-16.493c0-9.108,7.384-16.493,16.493-16.493
	h10.72V284.615z"/>
<circle style="fill:#A2B3BF;" cx="122.783" cy="331.306" r="21.922"/>
<path style="fill:#C9D2D9;" d="M122.788,353.23c-12.108,0-21.922-9.815-21.922-21.922c0-12.108,9.815-21.922,21.922-21.922V353.23z"
	/>
<path style="fill:#212A2D;" d="M421.305,385.708c-29.997,0-54.402-24.405-54.402-54.402c0-29.997,24.405-54.402,54.402-54.402
	c29.997,0,54.402,24.405,54.402,54.402C475.706,361.304,451.303,385.708,421.305,385.708z"/>
<path style="fill:#2E373A;" d="M421.305,385.708c-29.997,0-54.402-24.405-54.402-54.402c0-29.997,24.405-54.402,54.402-54.402
	V385.708z"/>
<circle style="fill:#A2B3BF;" cx="421.3" cy="331.306" r="21.922"/>
<path style="fill:#C9D2D9;" d="M421.305,353.23c-12.108,0-21.922-9.815-21.922-21.922c0-12.108,9.815-21.922,21.922-21.922V353.23z"
	/>
<g>
</g>
<g>
</g>
<g>
</g>
<g>
</g>
<g>
</g>
<g>
</g>
<g>
</g>
<g>
</g>
<g>
</g>
<g>
</g>
<g>
</g>
<g>
</g>
<g>
</g>
<g>
</g>
<g>
</g>
</svg>
